<?xml version="1.0" encoding="UTF-8" standalone="no"?>
<!DOCTYPE svg PUBLIC "-//W3C//DTD SVG 1.1//EN"
 "http://www.w3.org/Graphics/SVG/1.1/DTD/svg11.dtd">
<!-- Generated by graphviz version 2.38.0 (20140413.2041)
 -->
<!-- Title: %3 Pages: 1 -->
<svg width="200pt" height="92pt"
 viewBox="0.00 0.00 200.00 91.70" xmlns="http://www.w3.org/2000/svg" xmlns:xlink="http://www.w3.org/1999/xlink">
<g id="graph0" class="graph" transform="scale(1 1) rotate(0) translate(4 87.6985)">
<title>%3</title>
<polygon fill="white" stroke="none" points="-4,4 -4,-87.6985 196,-87.6985 196,4 -4,4"/>
<!-- &#45;1 -->
<g id="node1" class="node"><title>&#45;1</title>
<polygon fill="lightgray" stroke="black" points="24,-83.6985 0,-83.6985 0,-65.6985 24,-65.6985 24,-83.6985"/>
<text text-anchor="middle" x="12" y="-72.4985" font-family="Times,serif" font-size="9.00">&#45;1</text>
</g>
<!-- &#45;2 -->
<g id="node2" class="node"><title>&#45;2</title>
<polygon fill="lightgray" stroke="black" points="66,-83.6985 42,-83.6985 42,-65.6985 66,-65.6985 66,-83.6985"/>
<text text-anchor="middle" x="54" y="-72.4985" font-family="Times,serif" font-size="9.00">&#45;2</text>
</g>
<!-- 0 -->
<g id="node6" class="node"><title>0</title>
<ellipse fill="lightblue" stroke="black" cx="138" cy="-14.8492" rx="14.7" ry="14.7"/>
<text text-anchor="middle" x="138" y="-12.6492" font-family="Times,serif" font-size="9.00">0</text>
</g>
<!-- &#45;2&#45;&gt;0 -->
<g id="edge1" class="edge"><title>&#45;2&#45;&gt;0</title>
<path fill="none" stroke="red" stroke-width="0.192273" stroke-dasharray="1,5" d="M65.6798,-65.6548C79.1446,-56.3818 101.512,-40.978 117.812,-29.7523"/>
<polygon fill="red" stroke="red" stroke-width="0.192273" points="119.898,-32.5656 126.149,-24.0111 115.927,-26.8005 119.898,-32.5656"/>
</g>
<!-- 1 -->
<g id="node7" class="node"><title>1</title>
<ellipse fill="lightblue" stroke="black" cx="90" cy="-14.8492" rx="14.7" ry="14.7"/>
<text text-anchor="middle" x="90" y="-12.6492" font-family="Times,serif" font-size="9.00">1</text>
</g>
<!-- &#45;2&#45;&gt;1 -->
<g id="edge2" class="edge"><title>&#45;2&#45;&gt;1</title>
<path fill="none" stroke="red" stroke-width="0.395648" d="M59.0056,-65.6548C63.6799,-58.1437 70.8573,-46.6101 77.1286,-36.5326"/>
<polygon fill="red" stroke="red" stroke-width="0.395648" points="80.2233,-38.1839 82.5353,-27.8444 74.2801,-34.4854 80.2233,-38.1839"/>
</g>
<!-- &#45;3 -->
<g id="node3" class="node"><title>&#45;3</title>
<polygon fill="lightgray" stroke="black" points="108,-83.6985 84,-83.6985 84,-65.6985 108,-65.6985 108,-83.6985"/>
<text text-anchor="middle" x="96" y="-72.4985" font-family="Times,serif" font-size="9.00">&#45;3</text>
</g>
<!-- &#45;3&#45;&gt;0 -->
<g id="edge7" class="edge"><title>&#45;3&#45;&gt;0</title>
<path fill="none" stroke="red" stroke-width="0.156955" d="M101.84,-65.6548C107.475,-57.8934 116.228,-45.8369 123.711,-35.5302"/>
<polygon fill="red" stroke="red" stroke-width="0.156955" points="126.559,-37.5653 129.602,-27.4169 120.894,-33.4527 126.559,-37.5653"/>
</g>
<!-- &#45;3&#45;&gt;1 -->
<g id="edge3" class="edge"><title>&#45;3&#45;&gt;1</title>
<path fill="none" stroke="red" stroke-width="0.648331" d="M95.1657,-65.6548C94.4807,-59.0498 93.473,-49.3344 92.5291,-40.2339"/>
<polygon fill="red" stroke="red" stroke-width="0.648331" points="95.9866,-39.6419 91.4735,-30.0563 89.0239,-40.3641 95.9866,-39.6419"/>
</g>
<!-- &#45;4 -->
<g id="node4" class="node"><title>&#45;4</title>
<polygon fill="lightgray" stroke="black" points="150,-83.6985 126,-83.6985 126,-65.6985 150,-65.6985 150,-83.6985"/>
<text text-anchor="middle" x="138" y="-72.4985" font-family="Times,serif" font-size="9.00">&#45;4</text>
</g>
<!-- &#45;4&#45;&gt;0 -->
<g id="edge4" class="edge"><title>&#45;4&#45;&gt;0</title>
<path fill="none" stroke="green" stroke-width="0.98793" d="M138,-65.6548C138,-59.0498 138,-49.3344 138,-40.2339"/>
<polygon fill="green" stroke="green" stroke-width="0.98793" points="141.5,-40.0563 138,-30.0563 134.5,-40.0564 141.5,-40.0563"/>
</g>
<!-- &#45;4&#45;&gt;1 -->
<g id="edge5" class="edge"><title>&#45;4&#45;&gt;1</title>
<path fill="none" stroke="red" stroke-width="0.704841" stroke-dasharray="1,5" d="M131.326,-65.6548C124.74,-57.7178 114.428,-45.2891 105.752,-34.8334"/>
<polygon fill="red" stroke="red" stroke-width="0.704841" points="108.327,-32.4555 99.2478,-26.9946 102.94,-36.9253 108.327,-32.4555"/>
</g>
<!-- &#45;5 -->
<g id="node5" class="node"><title>&#45;5</title>
<polygon fill="lightgray" stroke="black" points="192,-83.6985 168,-83.6985 168,-65.6985 192,-65.6985 192,-83.6985"/>
<text text-anchor="middle" x="180" y="-72.4985" font-family="Times,serif" font-size="9.00">&#45;5</text>
</g>
<!-- &#45;5&#45;&gt;0 -->
<g id="edge6" class="edge"><title>&#45;5&#45;&gt;0</title>
<path fill="none" stroke="green" stroke-width="0.264057" d="M174.16,-65.6548C168.525,-57.8934 159.772,-45.8369 152.289,-35.5302"/>
<polygon fill="green" stroke="green" stroke-width="0.264057" points="155.106,-33.4527 146.398,-27.4169 149.441,-37.5653 155.106,-33.4527"/>
</g>
</g>
</svg>
