<?xml version="1.0" encoding="UTF-8" standalone="no"?>
<!DOCTYPE svg PUBLIC "-//W3C//DTD SVG 1.1//EN"
 "http://www.w3.org/Graphics/SVG/1.1/DTD/svg11.dtd">
<!-- Generated by graphviz version 2.38.0 (20140413.2041)
 -->
<!-- Title: %3 Pages: 1 -->
<svg width="182pt" height="170pt"
 viewBox="0.00 0.00 182.06 170.12" xmlns="http://www.w3.org/2000/svg" xmlns:xlink="http://www.w3.org/1999/xlink">
<g id="graph0" class="graph" transform="scale(1 1) rotate(0) translate(4 166.125)">
<title>%3</title>
<polygon fill="white" stroke="none" points="-4,4 -4,-166.125 178.062,-166.125 178.062,4 -4,4"/>
<!-- &#45;1 -->
<g id="node1" class="node"><title>&#45;1</title>
<polygon fill="lightgray" stroke="black" points="32.8492,-162.125 8.84924,-162.125 8.84924,-144.125 32.8492,-144.125 32.8492,-162.125"/>
<text text-anchor="middle" x="20.8492" y="-150.925" font-family="Times,serif" font-size="9.00">&#45;1</text>
</g>
<!-- &#45;2 -->
<g id="node2" class="node"><title>&#45;2</title>
<polygon fill="lightgray" stroke="black" points="74.8492,-162.125 50.8492,-162.125 50.8492,-144.125 74.8492,-144.125 74.8492,-162.125"/>
<text text-anchor="middle" x="62.8492" y="-150.925" font-family="Times,serif" font-size="9.00">&#45;2</text>
</g>
<!-- 1 -->
<g id="node7" class="node"><title>1</title>
<ellipse fill="lightblue" stroke="black" cx="14.8492" cy="-86.9117" rx="14.7" ry="14.7"/>
<text text-anchor="middle" x="14.8492" y="-84.7117" font-family="Times,serif" font-size="9.00">1</text>
</g>
<!-- &#45;2&#45;&gt;1 -->
<g id="edge1" class="edge"><title>&#45;2&#45;&gt;1</title>
<path fill="none" stroke="red" stroke-width="0.315203" d="M56.77,-143.992C49.9493,-134.868 38.6421,-119.741 29.4889,-107.496"/>
<polygon fill="red" stroke="red" stroke-width="0.315203" points="32.0901,-105.13 23.2995,-99.2163 26.4834,-109.321 32.0901,-105.13"/>
</g>
<!-- 128 -->
<g id="node8" class="node"><title>128</title>
<ellipse fill="white" stroke="black" cx="152.849" cy="-86.9117" rx="21.4286" ry="21.4286"/>
<text text-anchor="middle" x="152.849" y="-84.7117" font-family="Times,serif" font-size="9.00">128</text>
</g>
<!-- &#45;2&#45;&gt;128 -->
<g id="edge7" class="edge"><title>&#45;2&#45;&gt;128</title>
<path fill="none" stroke="green" stroke-width="0.237982" d="M74.2478,-143.992C87.6619,-134.422 110.331,-118.248 127.887,-105.722"/>
<polygon fill="green" stroke="green" stroke-width="0.237982" points="129.924,-108.568 136.031,-99.9108 125.858,-102.87 129.924,-108.568"/>
</g>
<!-- &#45;3 -->
<g id="node3" class="node"><title>&#45;3</title>
<polygon fill="lightgray" stroke="black" points="140.849,-162.125 116.849,-162.125 116.849,-144.125 140.849,-144.125 140.849,-162.125"/>
<text text-anchor="middle" x="128.849" y="-150.925" font-family="Times,serif" font-size="9.00">&#45;3</text>
</g>
<!-- &#45;3&#45;&gt;1 -->
<g id="edge2" class="edge"><title>&#45;3&#45;&gt;1</title>
<path fill="none" stroke="red" stroke-width="0.552723" d="M116.698,-147.311C98.9191,-140.023 65.0813,-125.212 38.8492,-108.125 37.1375,-107.01 35.4123,-105.788 33.7142,-104.514"/>
<polygon fill="red" stroke="red" stroke-width="0.552723" points="35.6116,-101.547 25.6389,-97.9694 31.2041,-106.985 35.6116,-101.547"/>
</g>
<!-- &#45;3&#45;&gt;128 -->
<g id="edge5" class="edge"><title>&#45;3&#45;&gt;128</title>
<path fill="none" stroke="green" stroke-width="0.251329" d="M131.889,-143.992C134.508,-136.985 138.45,-126.438 142.211,-116.374"/>
<polygon fill="green" stroke="green" stroke-width="0.251329" points="145.49,-117.598 145.713,-107.005 138.933,-115.147 145.49,-117.598"/>
</g>
<!-- &#45;4 -->
<g id="node4" class="node"><title>&#45;4</title>
<polygon fill="lightgray" stroke="black" points="71.8492,-95.9117 47.8492,-95.9117 47.8492,-77.9117 71.8492,-77.9117 71.8492,-95.9117"/>
<text text-anchor="middle" x="59.8492" y="-84.7117" font-family="Times,serif" font-size="9.00">&#45;4</text>
</g>
<!-- 0 -->
<g id="node6" class="node"><title>0</title>
<ellipse fill="lightblue" stroke="black" cx="101.849" cy="-14.8492" rx="14.7" ry="14.7"/>
<text text-anchor="middle" x="101.849" y="-12.6492" font-family="Times,serif" font-size="9.00">0</text>
</g>
<!-- &#45;4&#45;&gt;0 -->
<g id="edge3" class="edge"><title>&#45;4&#45;&gt;0</title>
<path fill="none" stroke="green" stroke-width="0.405363" d="M64.6672,-77.8746C70.6195,-67.9452 80.9729,-50.6741 89.2454,-36.8744"/>
<polygon fill="green" stroke="green" stroke-width="0.405363" points="92.4207,-38.3847 94.5604,-28.0082 86.4168,-34.7856 92.4207,-38.3847"/>
</g>
<!-- &#45;5 -->
<g id="node5" class="node"><title>&#45;5</title>
<polygon fill="lightgray" stroke="black" points="113.849,-95.9117 89.8492,-95.9117 89.8492,-77.9117 113.849,-77.9117 113.849,-95.9117"/>
<text text-anchor="middle" x="101.849" y="-84.7117" font-family="Times,serif" font-size="9.00">&#45;5</text>
</g>
<!-- &#45;5&#45;&gt;0 -->
<g id="edge4" class="edge"><title>&#45;5&#45;&gt;0</title>
<path fill="none" stroke="green" stroke-width="0.129713" d="M101.849,-77.8746C101.849,-68.7202 101.849,-53.3256 101.849,-40.1641"/>
<polygon fill="green" stroke="green" stroke-width="0.129713" points="105.349,-39.8196 101.849,-29.8197 98.3493,-39.8197 105.349,-39.8196"/>
</g>
<!-- 128&#45;&gt;0 -->
<g id="edge6" class="edge"><title>128&#45;&gt;0</title>
<path fill="none" stroke="green" stroke-width="0.29334" d="M140.763,-69.3079C133.399,-59.1915 123.949,-46.2088 116.205,-35.571"/>
<polygon fill="green" stroke="green" stroke-width="0.29334" points="118.9,-33.3261 110.185,-27.301 113.241,-37.4457 118.9,-33.3261"/>
</g>
</g>
</svg>
